<svg width="40" height="40" viewBox="0 0 40 40" fill="none" xmlns="http://www.w3.org/2000/svg">
<rect opacity="0.01" width="40" height="40" fill="white"/>
<path d="M20.0217 38.7281C22.3249 38.7281 24.192 36.861 24.192 34.5578C24.192 32.2548 22.3249 30.3877 20.0217 30.3877C17.7186 30.3877 15.8516 32.2548 15.8516 34.5578C15.8516 36.861 17.7186 38.7281 20.0217 38.7281Z" fill="#172C4C"/>
<path fill-rule="evenodd" clip-rule="evenodd" d="M20.02 31.4137C18.2834 31.4137 16.8755 32.8215 16.8755 34.5582C16.8755 36.2949 18.2834 37.7027 20.02 37.7027C21.7567 37.7027 23.1646 36.2949 23.1646 34.5582C23.1646 32.8215 21.7567 31.4137 20.02 31.4137ZM14.8242 34.5582C14.8242 31.6886 17.1505 29.3623 20.02 29.3623C22.8896 29.3623 25.2159 31.6886 25.2159 34.5582C25.2159 37.4278 22.8896 39.754 20.02 39.754C17.1505 39.754 14.8242 37.4278 14.8242 34.5582Z" fill="#FDFDFD"/>
<path fill-rule="evenodd" clip-rule="evenodd" d="M19.0098 21.9512H20.8697V33.8213H19.0098V21.9512Z" fill="#172C4C"/>
<path d="M20.0222 22.4642C26.0103 22.4642 30.8647 17.61 30.8647 11.6218C30.8647 5.63365 26.0103 0.779297 20.0222 0.779297C14.034 0.779297 9.17969 5.63365 9.17969 11.6218C9.17969 17.61 14.034 22.4642 20.0222 22.4642Z" fill="#0097FB"/>
<path fill-rule="evenodd" clip-rule="evenodd" d="M20.0213 1.29218C14.3164 1.29218 9.69165 5.91694 9.69165 11.6219C9.69165 17.3267 14.3164 21.9515 20.0213 21.9515C25.7263 21.9515 30.3509 17.3267 30.3509 11.6219C30.3509 5.91694 25.7263 1.29218 20.0213 1.29218ZM8.66602 11.6219C8.66602 5.35055 13.75 0.266602 20.0213 0.266602C26.2927 0.266602 31.3767 5.35055 31.3767 11.6219C31.3767 17.8933 26.2927 22.9772 20.0213 22.9772C13.75 22.9772 8.66602 17.8933 8.66602 11.6219Z" fill="#0097FB"/>
<path d="M20.0217 14.9585C21.8641 14.9585 23.3579 13.4647 23.3579 11.6223C23.3579 9.77977 21.8641 8.28613 20.0217 8.28613C18.1792 8.28613 16.6855 9.77977 16.6855 11.6223C16.6855 13.4647 18.1792 14.9585 20.0217 14.9585Z" fill="#F9FFFF"/>
</svg>
