<?xml version="1.0" encoding="utf-8"?>
<!-- Generator: Adobe Illustrator 16.0.0, SVG Export Plug-In . SVG Version: 6.00 Build 0)  -->
<!DOCTYPE svg PUBLIC "-//W3C//DTD SVG 1.1//EN" "http://www.w3.org/Graphics/SVG/1.1/DTD/svg11.dtd">
<svg version="1.1" id="Layer_1" xmlns="http://www.w3.org/2000/svg" xmlns:xlink="http://www.w3.org/1999/xlink" x="0px" y="0px"
	 width="24px" height="24px" viewBox="0 0 24 24" enable-background="new 0 0 24 24" xml:space="preserve">
<g id="ic_format_color_fill_24px" transform="translate(-1399 -24)">
	<path id="Path_85" fill="#FFFFFF" d="M1415.561,32.94l-8.94-8.94l-1.41,1.41l2.38,2.38l-5.15,5.15
		c-0.585,0.579-0.59,1.523-0.011,2.109c0.003,0.003,0.007,0.007,0.011,0.011l5.5,5.5c0.585,0.584,1.535,0.584,2.12,0l5.5-5.5
		c0.585-0.579,0.59-1.523,0.011-2.109C1415.568,32.948,1415.564,32.944,1415.561,32.94z M1404.21,34l4.79-4.79l4.79,4.79H1404.21z
		 M1418,35.5c0,0-2,2.17-2,3.5c0,1.104,0.896,2,2,2s2-0.896,2-2C1420,37.67,1418,35.5,1418,35.5z"/>
	<path id="Path_86" fill="#FFFFFF" d="M1399,44h24v4h-24V44z"/>
</g>
</svg>
